# xmcd
# 
# Track frame offsets:
#     150
#     23637
#     57650
#     64862
#     89387
#     112275
#     138175
#     153425
# 
# Disc length: 2294
# 
# Revision: 1
# Processed by: cddbd v1.5.2PL0 Copyright (c) Steve Scherf et al.
# Submitted via: BonkEnc v1.0.8
# 
DISCID=6d08f408
DTITLE=Gary Boyle - The Dancer
DYEAR=1977
DGENRE=Fusion
TTITLE0=Cowshed Shuffle
TTITLE1=The Dancer
TTITLE2=Now That We're Alone
TTITLE3=Lullaby For A Sleepy Dormouse
TTITLE4=Almond Burfi
TTITLE5=Pendle Mist
TTITLE6=Apple Crumble
TTITLE7=Maiden Voyage
EXTD=YEAR: 1978
EXTT0=
EXTT1=
EXTT2=
EXTT3=
EXTT4=
EXTT5=
EXTT6=
EXTT7=
PLAYORDER=
